ply
format ascii 1.0
comment Created by CloudCompare v2.10.2 (Zephyrus)
comment Created 24-Mar-21 19:16
obj_info Generated by CloudCompare!
element vertex 544
property float x
property float y
property float z
element face 1068
property list uchar int vertex_indices
end_header
-350 252.5 -147.5 
-349.915 252.5 -148.147 
-349.665 252.5 -148.75 
-349.268 252.5 -149.268 
-348.75 252.5 -149.665 
-348.147 252.5 -149.915 
-347.5 252.5 -150 
-347.5 251.853 -149.915 
-347.5 251.25 -149.665 
-347.5 250.732 -149.268 
-347.5 250.335 -148.75 
-347.5 250.085 -148.147 
-347.5 250 -147.5 
-348.147 250.085 -147.5 
-348.75 250.335 -147.5 
-349.268 250.732 -147.5 
-349.665 251.25 -147.5 
-349.915 251.853 -147.5 
-349.297 252.411 -149.236 
-349.634 252.134 -148.75 
-349.825 251.882 -148.179 
-349.858 251.673 -147.562 
-349.957 252.457 -147.958 
-348.593 252.199 -149.728 
-349.024 251.859 -149.375 
-349.352 251.563 -148.894 
-349.553 251.331 -148.318 
-349.614 251.179 -147.687 
-347.799 252.201 -149.964 
-348.24 251.76 -149.771 
-348.63 251.37 -149.423 
-348.943 251.057 -148.943 
-349.158 250.842 -148.366 
-349.26 250.74 -147.729 
-347.801 251.407 -149.728 
-348.141 250.976 -149.375 
-348.437 250.648 -148.894 
-348.669 250.447 -148.318 
-348.821 250.386 -147.687 
-347.589 250.703 -149.236 
-347.866 250.366 -148.75 
-348.118 250.175 -148.179 
-348.327 250.142 -147.562 
-347.543 250.043 -147.958 
-347.5 252.5 150 
-348.147 252.5 149.915 
-348.75 252.5 149.665 
-349.268 252.5 149.268 
-349.665 252.5 148.75 
-349.915 252.5 148.147 
-350 252.5 147.5 
-349.915 251.853 147.5 
-349.665 251.25 147.5 
-349.268 250.732 147.5 
-348.75 250.335 147.5 
-348.147 250.085 147.5 
-347.5 250 147.5 
-347.5 250.085 148.147 
-347.5 250.335 148.75 
-347.5 250.732 149.268 
-347.5 251.25 149.665 
-347.5 251.853 149.915 
-348.327 252.438 149.858 
-348.118 251.821 149.825 
-347.866 251.25 149.634 
-347.589 250.764 149.297 
-347.543 252.042 149.957 
-348.821 252.313 149.614 
-348.669 251.682 149.553 
-348.437 251.106 149.352 
-348.141 250.625 149.024 
-347.801 250.272 148.593 
-347.799 250.036 147.799 
-348.24 250.229 148.24 
-348.63 250.577 148.63 
-348.943 251.057 148.943 
-349.158 251.634 149.158 
-349.26 252.271 149.26 
-349.614 252.313 148.821 
-349.553 251.682 148.669 
-349.352 251.106 148.437 
-349.024 250.625 148.141 
-348.593 250.272 147.801 
-349.858 252.438 148.327 
-349.825 251.821 148.118 
-349.634 251.25 147.866 
-349.297 250.764 147.589 
-349.957 252.042 147.543 
347.5 252.5 -150 
348.147 252.5 -149.915 
348.75 252.5 -149.665 
349.268 252.5 -149.268 
349.665 252.5 -148.75 
349.915 252.5 -148.147 
350 252.5 -147.5 
349.915 251.853 -147.5 
349.665 251.25 -147.5 
349.268 250.732 -147.5 
348.75 250.335 -147.5 
348.147 250.085 -147.5 
347.5 250 -147.5 
347.5 250.085 -148.147 
347.5 250.335 -148.75 
347.5 250.732 -149.268 
347.5 251.25 -149.665 
347.5 251.853 -149.915 
348.327 252.438 -149.858 
348.118 251.821 -149.825 
347.866 251.25 -149.634 
347.589 250.764 -149.297 
347.543 252.042 -149.957 
348.821 252.313 -149.614 
348.669 251.682 -149.553 
348.437 251.106 -149.352 
348.141 250.625 -149.024 
347.801 250.272 -148.593 
347.799 250.036 -147.799 
348.24 250.229 -148.24 
348.63 250.577 -148.63 
348.943 251.057 -148.943 
349.158 251.634 -149.158 
349.26 252.271 -149.26 
349.614 252.313 -148.821 
349.553 251.682 -148.669 
349.352 251.106 -148.437 
349.024 250.625 -148.141 
348.593 250.272 -147.801 
349.858 252.438 -148.327 
349.825 251.821 -148.118 
349.634 251.25 -147.866 
349.297 250.764 -147.589 
349.957 252.042 -147.543 
-347.5 260 -147.5 
-347.5 259.915 -148.147 
-347.5 259.665 -148.75 
-347.5 259.268 -149.268 
-347.5 258.75 -149.665 
-347.5 258.147 -149.915 
-347.5 257.5 -150 
-348.147 257.5 -149.915 
-348.75 257.5 -149.665 
-349.268 257.5 -149.268 
-349.665 257.5 -148.75 
-349.915 257.5 -148.147 
-350 257.5 -147.5 
-349.915 258.147 -147.5 
-349.665 258.75 -147.5 
-349.268 259.268 -147.5 
-348.75 259.665 -147.5 
-348.147 259.915 -147.5 
-347.543 257.958 -149.957 
-349.26 257.729 -149.26 
-349.158 258.366 -149.158 
-348.943 258.943 -148.943 
-348.63 259.423 -148.63 
-348.24 259.771 -148.24 
-347.799 259.964 -147.799 
-347.801 259.728 -148.593 
-348.141 259.375 -149.024 
-348.437 258.894 -149.352 
-348.669 258.318 -149.553 
-348.821 257.687 -149.614 
-347.589 259.236 -149.297 
-347.866 258.75 -149.634 
-348.118 258.179 -149.825 
-348.327 257.562 -149.858 
-349.614 257.687 -148.821 
-349.553 258.318 -148.669 
-349.352 258.894 -148.437 
-349.024 259.375 -148.141 
-348.593 259.728 -147.801 
-349.858 257.562 -148.327 
-349.825 258.179 -148.118 
-349.634 258.75 -147.866 
-349.297 259.236 -147.589 
-349.957 257.958 -147.543 
347.5 252.5 150 
347.5 251.853 149.915 
347.5 251.25 149.665 
347.5 250.732 149.268 
347.5 250.335 148.75 
347.5 250.085 148.147 
347.5 250 147.5 
348.147 250.085 147.5 
348.75 250.335 147.5 
349.268 250.732 147.5 
349.665 251.25 147.5 
349.915 251.853 147.5 
350 252.5 147.5 
349.915 252.5 148.147 
349.665 252.5 148.75 
349.268 252.5 149.268 
348.75 252.5 149.665 
348.147 252.5 149.915 
347.589 250.764 149.297 
347.866 251.25 149.634 
348.118 251.821 149.825 
348.327 252.438 149.858 
347.543 252.042 149.957 
347.801 250.272 148.593 
348.141 250.625 149.024 
348.437 251.106 149.352 
348.669 251.682 149.553 
348.821 252.313 149.614 
347.799 250.036 147.799 
348.24 250.229 148.24 
348.63 250.577 148.63 
348.943 251.057 148.943 
349.158 251.634 149.158 
349.26 252.271 149.26 
348.593 250.272 147.801 
349.024 250.625 148.141 
349.352 251.106 148.437 
349.553 251.682 148.669 
349.614 252.313 148.821 
349.297 250.764 147.589 
349.634 251.25 147.866 
349.825 251.821 148.118 
349.858 252.438 148.327 
349.957 252.042 147.543 
-347.5 260 147.5 
-348.147 259.915 147.5 
-348.75 259.665 147.5 
-349.268 259.268 147.5 
-349.665 258.75 147.5 
-349.915 258.147 147.5 
-350 257.5 147.5 
-349.915 257.5 148.147 
-349.665 257.5 148.75 
-349.268 257.5 149.268 
-348.75 257.5 149.665 
-348.147 257.5 149.915 
-347.5 257.5 150 
-347.5 258.147 149.915 
-347.5 258.75 149.665 
-347.5 259.268 149.268 
-347.5 259.665 148.75 
-347.5 259.915 148.147 
-349.957 257.958 147.543 
-349.26 257.729 149.26 
-349.158 258.366 149.158 
-348.943 258.943 148.943 
-348.63 259.423 148.63 
-348.24 259.771 148.24 
-347.799 259.964 147.799 
-348.593 259.728 147.801 
-349.024 259.375 148.141 
-349.352 258.894 148.437 
-349.553 258.318 148.669 
-349.614 257.687 148.821 
-349.297 259.236 147.589 
-349.634 258.75 147.866 
-349.825 258.179 148.118 
-349.858 257.562 148.327 
-348.821 257.687 149.614 
-348.669 258.318 149.553 
-348.437 258.894 149.352 
-348.141 259.375 149.024 
-347.801 259.728 148.593 
-348.327 257.562 149.858 
-348.118 258.179 149.825 
-347.866 258.75 149.634 
-347.589 259.236 149.297 
-347.543 257.958 149.957 
347.5 260 -147.5 
348.147 259.915 -147.5 
348.75 259.665 -147.5 
349.268 259.268 -147.5 
349.665 258.75 -147.5 
349.915 258.147 -147.5 
350 257.5 -147.5 
349.915 257.5 -148.147 
349.665 257.5 -148.75 
349.268 257.5 -149.268 
348.75 257.5 -149.665 
348.147 257.5 -149.915 
347.5 257.5 -150 
347.5 258.147 -149.915 
347.5 258.75 -149.665 
347.5 259.268 -149.268 
347.5 259.665 -148.75 
347.5 259.915 -148.147 
349.957 257.958 -147.543 
349.26 257.729 -149.26 
349.158 258.366 -149.158 
348.943 258.943 -148.943 
348.63 259.423 -148.63 
348.24 259.771 -148.24 
347.799 259.964 -147.799 
348.593 259.728 -147.801 
349.024 259.375 -148.141 
349.352 258.894 -148.437 
349.553 258.318 -148.669 
349.614 257.687 -148.821 
349.297 259.236 -147.589 
349.634 258.75 -147.866 
349.825 258.179 -148.118 
349.858 257.562 -148.327 
348.821 257.687 -149.614 
348.669 258.318 -149.553 
348.437 258.894 -149.352 
348.141 259.375 -149.024 
347.801 259.728 -148.593 
348.327 257.562 -149.858 
348.118 258.179 -149.825 
347.866 258.75 -149.634 
347.589 259.236 -149.297 
347.543 257.958 -149.957 
347.5 260 147.5 
347.5 259.915 148.147 
347.5 259.665 148.75 
347.5 259.268 149.268 
347.5 258.75 149.665 
347.5 258.147 149.915 
347.5 257.5 150 
348.147 257.5 149.915 
348.75 257.5 149.665 
349.268 257.5 149.268 
349.665 257.5 148.75 
349.915 257.5 148.147 
350 257.5 147.5 
349.915 258.147 147.5 
349.665 258.75 147.5 
349.268 259.268 147.5 
348.75 259.665 147.5 
348.147 259.915 147.5 
347.543 257.958 149.957 
349.26 257.729 149.26 
349.158 258.366 149.158 
348.943 258.943 148.943 
348.63 259.423 148.63 
348.24 259.771 148.24 
347.799 259.964 147.799 
347.801 259.728 148.593 
348.141 259.375 149.024 
348.437 258.894 149.352 
348.669 258.318 149.553 
348.821 257.687 149.614 
347.589 259.236 149.297 
347.866 258.75 149.634 
348.118 258.179 149.825 
348.327 257.562 149.858 
349.614 257.687 148.821 
349.553 258.318 148.669 
349.352 258.894 148.437 
349.024 259.375 148.141 
348.593 259.728 147.801 
349.858 257.562 148.327 
349.825 258.179 148.118 
349.634 258.75 147.866 
349.297 259.236 147.589 
349.957 257.958 147.543 
275.888 0 97.1853 
274.798 0 98.3698 
273.433 0 99.2289 
271.886 0 99.7041 
270.262 0 99.763 
268.673 0 99.4016 
267.225 0 98.6445 
266.019 0 97.5432 
265.135 0 96.173 
264.635 0 94.627 
264.553 0 93.0107 
264.893 0 91.4343 
265.634 0 90.0051 
266.723 0 88.8206 
268.088 0 87.9615 
269.635 0 87.4863 
271.259 0 87.4274 
272.849 0 87.7888 
274.296 0 88.546 
275.503 0 89.6472 
276.386 0 91.0175 
276.886 0 92.5634 
276.969 0 94.1797 
276.628 0 95.7561 
239.505 257.138 71.7096 
238.261 257.097 73.0726 
236.713 256.974 74.0706 
234.966 256.779 74.6355 
233.14 256.525 74.7287 
231.359 256.228 74.3441 
229.745 255.911 73.5077 
228.407 255.593 72.2765 
227.436 255.297 70.7346 
226.899 255.042 68.9868 
226.833 254.847 67.1525 
227.241 254.725 65.3565 
228.096 254.683 63.7212 
229.34 254.725 62.3582 
230.888 254.847 61.3602 
232.635 255.042 60.7953 
234.461 255.297 60.702 
236.242 255.593 61.0867 
237.856 255.911 61.9231 
239.195 256.228 63.1543 
240.165 256.525 64.6962 
240.702 256.779 66.4439 
240.769 256.974 68.2783 
240.36 257.097 70.0743 
275.888 0 -97.1853 
276.628 0 -95.7561 
276.969 0 -94.1797 
276.886 0 -92.5634 
276.386 0 -91.0175 
275.503 0 -89.6472 
274.296 0 -88.546 
272.849 0 -87.7888 
271.259 0 -87.4274 
269.635 0 -87.4863 
268.088 0 -87.9615 
266.723 0 -88.8206 
265.634 0 -90.0051 
264.893 0 -91.4343 
264.553 0 -93.0107 
264.635 0 -94.627 
265.135 0 -96.173 
266.019 0 -97.5432 
267.225 0 -98.6445 
268.673 0 -99.4016 
270.262 0 -99.763 
271.886 0 -99.7041 
273.433 0 -99.2289 
274.798 0 -98.3698 
239.505 257.138 -71.7096 
240.36 257.097 -70.0743 
240.769 256.974 -68.2783 
240.702 256.779 -66.4439 
240.165 256.525 -64.6962 
239.195 256.228 -63.1543 
237.856 255.911 -61.9231 
236.242 255.593 -61.0867 
234.461 255.297 -60.702 
232.635 255.042 -60.7953 
230.888 254.847 -61.3602 
229.34 254.725 -62.3582 
228.096 254.683 -63.7212 
227.241 254.725 -65.3565 
226.833 254.847 -67.1525 
226.899 255.042 -68.9868 
227.436 255.297 -70.7346 
228.407 255.593 -72.2765 
229.745 255.911 -73.5077 
231.359 256.228 -74.3441 
233.14 256.525 -74.7287 
234.966 256.779 -74.6355 
236.713 256.974 -74.0706 
238.261 257.097 -73.0726 
-275.888 0 97.1853 
-276.628 0 95.7561 
-276.969 0 94.1797 
-276.886 0 92.5634 
-276.386 0 91.0175 
-275.503 0 89.6472 
-274.296 0 88.546 
-272.849 0 87.7888 
-271.259 0 87.4274 
-269.635 0 87.4863 
-268.088 0 87.9615 
-266.723 0 88.8206 
-265.634 0 90.0051 
-264.893 0 91.4343 
-264.553 0 93.0107 
-264.635 0 94.627 
-265.135 0 96.173 
-266.019 0 97.5432 
-267.225 0 98.6445 
-268.673 0 99.4016 
-270.262 0 99.763 
-271.886 0 99.7041 
-273.433 0 99.2289 
-274.798 0 98.3698 
-239.505 257.138 71.7096 
-240.36 257.097 70.0743 
-240.769 256.974 68.2783 
-240.702 256.779 66.4439 
-240.165 256.525 64.6962 
-239.195 256.228 63.1543 
-237.856 255.911 61.9231 
-236.242 255.593 61.0867 
-234.461 255.297 60.702 
-232.635 255.042 60.7953 
-230.888 254.847 61.3602 
-229.34 254.725 62.3582 
-228.096 254.683 63.7212 
-227.241 254.725 65.3565 
-226.833 254.847 67.1525 
-226.899 255.042 68.9868 
-227.436 255.297 70.7346 
-228.407 255.593 72.2765 
-229.745 255.911 73.5077 
-231.359 256.228 74.3441 
-233.14 256.525 74.7287 
-234.966 256.779 74.6355 
-236.713 256.974 74.0706 
-238.261 257.097 73.0726 
-275.888 0 -97.1853 
-274.798 0 -98.3698 
-273.433 0 -99.2289 
-271.886 0 -99.7041 
-270.262 0 -99.763 
-268.673 0 -99.4016 
-267.225 0 -98.6445 
-266.019 0 -97.5432 
-265.135 0 -96.173 
-264.635 0 -94.627 
-264.553 0 -93.0107 
-264.893 0 -91.4343 
-265.634 0 -90.0051 
-266.723 0 -88.8206 
-268.088 0 -87.9615 
-269.635 0 -87.4863 
-271.259 0 -87.4274 
-272.849 0 -87.7888 
-274.296 0 -88.546 
-275.503 0 -89.6472 
-276.386 0 -91.0175 
-276.886 0 -92.5634 
-276.969 0 -94.1797 
-276.628 0 -95.7561 
-239.505 257.138 -71.7096 
-238.261 257.097 -73.0726 
-236.713 256.974 -74.0706 
-234.966 256.779 -74.6355 
-233.14 256.525 -74.7287 
-231.359 256.228 -74.3441 
-229.745 255.911 -73.5077 
-228.407 255.593 -72.2765 
-227.436 255.297 -70.7346 
-226.899 255.042 -68.9868 
-226.833 254.847 -67.1525 
-227.241 254.725 -65.3565 
-228.096 254.683 -63.7212 
-229.34 254.725 -62.3582 
-230.888 254.847 -61.3602 
-232.635 255.042 -60.7953 
-234.461 255.297 -60.702 
-236.242 255.593 -61.0867 
-237.856 255.911 -61.9231 
-239.195 256.228 -63.1543 
-240.165 256.525 -64.6962 
-240.702 256.779 -66.4439 
-240.769 256.974 -68.2783 
-240.36 257.097 -70.0743 
3 17 0 22 
3 22 0 1 
3 22 1 20 
3 20 1 19 
3 20 19 26 
3 26 19 25 
3 26 25 32 
3 32 25 31 
3 32 31 37 
3 37 31 36 
3 37 36 41 
3 41 36 40 
3 41 40 11 
3 11 40 10 
3 10 40 39 
3 10 39 9 
3 9 39 8 
3 8 39 35 
3 8 35 34 
3 34 35 29 
3 34 29 7 
3 7 29 28 
3 7 28 6 
3 6 28 5 
3 5 28 29 
3 5 29 23 
3 23 29 30 
3 23 30 24 
3 24 30 31 
3 24 31 25 
3 1 2 19 
3 19 2 18 
3 19 18 25 
3 25 18 24 
3 2 3 18 
3 18 3 4 
3 18 4 24 
3 24 4 23 
3 4 5 23 
3 7 8 34 
3 41 11 43 
3 43 11 12 
3 43 12 13 
3 14 42 13 
3 13 42 41 
3 13 41 43 
3 42 14 38 
3 38 14 15 
3 38 15 33 
3 33 15 27 
3 33 27 26 
3 26 27 20 
3 15 16 27 
3 27 16 21 
3 27 21 20 
3 20 21 17 
3 20 17 22 
3 16 17 21 
3 33 26 32 
3 36 31 30 
3 36 30 35 
3 35 30 29 
3 38 33 32 
3 38 32 37 
3 40 36 35 
3 39 40 35 
3 42 38 37 
3 42 37 41 
3 61 44 66 
3 66 44 45 
3 66 45 63 
3 63 45 62 
3 63 62 68 
3 68 62 67 
3 68 67 76 
3 76 67 77 
3 76 77 79 
3 79 77 78 
3 79 78 84 
3 84 78 83 
3 84 83 49 
3 49 83 48 
3 48 83 78 
3 48 78 47 
3 47 78 77 
3 47 77 67 
3 45 46 62 
3 62 46 67 
3 46 47 67 
3 84 49 87 
3 87 49 50 
3 87 50 51 
3 52 85 51 
3 51 85 84 
3 51 84 87 
3 85 52 86 
3 86 52 53 
3 86 53 54 
3 55 82 54 
3 54 82 81 
3 54 81 86 
3 86 81 80 
3 86 80 85 
3 85 80 79 
3 85 79 84 
3 56 72 55 
3 55 72 73 
3 55 73 82 
3 82 73 74 
3 82 74 81 
3 81 74 75 
3 81 75 80 
3 80 75 76 
3 80 76 79 
3 56 57 72 
3 72 57 73 
3 73 57 71 
3 71 57 58 
3 71 58 70 
3 70 58 65 
3 70 65 64 
3 64 65 60 
3 64 60 61 
3 58 59 65 
3 65 59 60 
3 66 63 61 
3 61 63 64 
3 64 63 69 
3 69 63 68 
3 69 68 75 
3 75 68 76 
3 64 69 70 
3 70 69 74 
3 70 74 73 
3 74 69 75 
3 73 71 70 
3 12 56 13 
3 13 56 55 
3 13 55 14 
3 14 55 54 
3 14 54 15 
3 15 54 53 
3 15 53 16 
3 16 53 52 
3 16 52 17 
3 17 52 51 
3 17 51 0 
3 0 51 50 
3 105 88 110 
3 110 88 89 
3 110 89 107 
3 107 89 106 
3 107 106 112 
3 112 106 111 
3 112 111 120 
3 120 111 121 
3 120 121 123 
3 123 121 122 
3 123 122 128 
3 128 122 127 
3 128 127 93 
3 93 127 92 
3 92 127 122 
3 92 122 91 
3 91 122 121 
3 91 121 111 
3 89 90 106 
3 106 90 111 
3 90 91 111 
3 128 93 131 
3 131 93 94 
3 131 94 95 
3 96 129 95 
3 95 129 128 
3 95 128 131 
3 129 96 130 
3 130 96 97 
3 130 97 98 
3 99 126 98 
3 98 126 125 
3 98 125 130 
3 130 125 124 
3 130 124 129 
3 129 124 123 
3 129 123 128 
3 100 116 99 
3 99 116 117 
3 99 117 126 
3 126 117 118 
3 126 118 125 
3 125 118 119 
3 125 119 124 
3 124 119 120 
3 124 120 123 
3 100 101 116 
3 116 101 117 
3 117 101 115 
3 115 101 102 
3 115 102 114 
3 114 102 109 
3 114 109 108 
3 108 109 104 
3 108 104 105 
3 102 103 109 
3 109 103 104 
3 110 107 105 
3 105 107 108 
3 108 107 113 
3 113 107 112 
3 113 112 119 
3 119 112 120 
3 108 113 114 
3 114 113 118 
3 114 118 117 
3 118 113 119 
3 117 115 114 
3 149 132 156 
3 156 132 133 
3 156 133 155 
3 155 133 157 
3 155 157 158 
3 158 157 134 
3 158 134 135 
3 133 134 157 
3 158 135 162 
3 162 135 136 
3 162 136 163 
3 163 136 137 
3 163 137 164 
3 164 137 150 
3 164 150 139 
3 139 150 138 
3 138 150 137 
3 164 139 165 
3 165 139 140 
3 165 140 161 
3 161 140 141 
3 161 141 151 
3 151 141 166 
3 151 166 167 
3 167 166 172 
3 167 172 173 
3 173 172 145 
3 173 145 146 
3 141 142 166 
3 166 142 171 
3 166 171 172 
3 172 171 143 
3 172 143 175 
3 175 143 144 
3 175 144 145 
3 142 143 171 
3 173 146 174 
3 174 146 147 
3 174 147 148 
3 149 170 148 
3 148 170 169 
3 148 169 174 
3 174 169 168 
3 174 168 173 
3 173 168 167 
3 151 152 161 
3 161 152 160 
3 161 160 165 
3 165 160 164 
3 152 153 160 
3 160 153 159 
3 160 159 164 
3 164 159 163 
3 151 167 152 
3 152 167 168 
3 152 168 153 
3 153 168 169 
3 153 169 154 
3 154 169 170 
3 154 170 155 
3 155 170 149 
3 155 149 156 
3 153 154 159 
3 159 154 158 
3 159 158 163 
3 163 158 162 
3 154 155 158 
3 175 145 172 
3 0 144 1 
3 1 144 143 
3 1 143 2 
3 2 143 142 
3 2 142 3 
3 3 142 141 
3 3 141 4 
3 4 141 140 
3 4 140 5 
3 5 140 139 
3 5 139 6 
3 6 139 138 
3 193 176 198 
3 198 176 177 
3 198 177 196 
3 196 177 195 
3 196 195 202 
3 202 195 201 
3 202 201 208 
3 208 201 207 
3 208 207 213 
3 213 207 212 
3 213 212 217 
3 217 212 216 
3 217 216 187 
3 187 216 186 
3 186 216 215 
3 186 215 185 
3 185 215 184 
3 184 215 211 
3 184 211 210 
3 210 211 205 
3 210 205 183 
3 183 205 204 
3 183 204 182 
3 182 204 181 
3 181 204 205 
3 181 205 199 
3 199 205 206 
3 199 206 200 
3 200 206 207 
3 200 207 201 
3 177 178 195 
3 195 178 194 
3 195 194 201 
3 201 194 200 
3 178 179 194 
3 194 179 180 
3 194 180 200 
3 200 180 199 
3 180 181 199 
3 183 184 210 
3 217 187 219 
3 219 187 188 
3 219 188 189 
3 190 218 189 
3 189 218 217 
3 189 217 219 
3 218 190 214 
3 214 190 191 
3 214 191 209 
3 209 191 203 
3 209 203 202 
3 202 203 196 
3 191 192 203 
3 203 192 197 
3 203 197 196 
3 196 197 193 
3 196 193 198 
3 192 193 197 
3 209 202 208 
3 212 207 206 
3 212 206 211 
3 211 206 205 
3 214 209 208 
3 214 208 213 
3 216 212 211 
3 215 216 211 
3 218 214 213 
3 218 213 217 
3 182 100 183 
3 183 100 99 
3 183 99 184 
3 184 99 98 
3 184 98 185 
3 185 98 97 
3 185 97 186 
3 186 97 96 
3 186 96 187 
3 187 96 95 
3 187 95 188 
3 188 95 94 
3 237 220 244 
3 244 220 221 
3 244 221 243 
3 243 221 245 
3 243 245 246 
3 246 245 222 
3 246 222 223 
3 221 222 245 
3 246 223 250 
3 250 223 224 
3 250 224 251 
3 251 224 225 
3 251 225 252 
3 252 225 238 
3 252 238 227 
3 227 238 226 
3 226 238 225 
3 252 227 253 
3 253 227 228 
3 253 228 249 
3 249 228 229 
3 249 229 239 
3 239 229 254 
3 239 254 255 
3 255 254 260 
3 255 260 261 
3 261 260 233 
3 261 233 234 
3 229 230 254 
3 254 230 259 
3 254 259 260 
3 260 259 231 
3 260 231 263 
3 263 231 232 
3 263 232 233 
3 230 231 259 
3 261 234 262 
3 262 234 235 
3 262 235 236 
3 237 258 236 
3 236 258 257 
3 236 257 262 
3 262 257 256 
3 262 256 261 
3 261 256 255 
3 239 240 249 
3 249 240 248 
3 249 248 253 
3 253 248 252 
3 240 241 248 
3 248 241 247 
3 248 247 252 
3 252 247 251 
3 239 255 240 
3 240 255 256 
3 240 256 241 
3 241 256 257 
3 241 257 242 
3 242 257 258 
3 242 258 243 
3 243 258 237 
3 243 237 244 
3 241 242 247 
3 247 242 246 
3 247 246 251 
3 251 246 250 
3 242 243 246 
3 263 233 260 
3 44 232 45 
3 45 232 231 
3 45 231 46 
3 46 231 230 
3 46 230 47 
3 47 230 229 
3 47 229 48 
3 48 229 228 
3 48 228 49 
3 49 228 227 
3 49 227 50 
3 50 227 226 
3 281 264 288 
3 288 264 265 
3 288 265 287 
3 287 265 289 
3 287 289 290 
3 290 289 266 
3 290 266 267 
3 265 266 289 
3 290 267 294 
3 294 267 268 
3 294 268 295 
3 295 268 269 
3 295 269 296 
3 296 269 282 
3 296 282 271 
3 271 282 270 
3 270 282 269 
3 296 271 297 
3 297 271 272 
3 297 272 293 
3 293 272 273 
3 293 273 283 
3 283 273 298 
3 283 298 299 
3 299 298 304 
3 299 304 305 
3 305 304 277 
3 305 277 278 
3 273 274 298 
3 298 274 303 
3 298 303 304 
3 304 303 275 
3 304 275 307 
3 307 275 276 
3 307 276 277 
3 274 275 303 
3 305 278 306 
3 306 278 279 
3 306 279 280 
3 281 302 280 
3 280 302 301 
3 280 301 306 
3 306 301 300 
3 306 300 305 
3 305 300 299 
3 283 284 293 
3 293 284 292 
3 293 292 297 
3 297 292 296 
3 284 285 292 
3 292 285 291 
3 292 291 296 
3 296 291 295 
3 283 299 284 
3 284 299 300 
3 284 300 285 
3 285 300 301 
3 285 301 286 
3 286 301 302 
3 286 302 287 
3 287 302 281 
3 287 281 288 
3 285 286 291 
3 291 286 290 
3 291 290 295 
3 295 290 294 
3 286 287 290 
3 307 277 304 
3 88 276 89 
3 89 276 275 
3 89 275 90 
3 90 275 274 
3 90 274 91 
3 91 274 273 
3 91 273 92 
3 92 273 272 
3 92 272 93 
3 93 272 271 
3 93 271 94 
3 94 271 270 
3 276 138 277 
3 277 138 137 
3 277 137 278 
3 278 137 136 
3 278 136 279 
3 279 136 135 
3 279 135 280 
3 280 135 134 
3 280 134 281 
3 281 134 133 
3 281 133 264 
3 264 133 132 
3 325 308 332 
3 332 308 309 
3 332 309 331 
3 331 309 333 
3 331 333 334 
3 334 333 310 
3 334 310 311 
3 309 310 333 
3 334 311 338 
3 338 311 312 
3 338 312 339 
3 339 312 313 
3 339 313 340 
3 340 313 326 
3 340 326 315 
3 315 326 314 
3 314 326 313 
3 340 315 341 
3 341 315 316 
3 341 316 337 
3 337 316 317 
3 337 317 327 
3 327 317 342 
3 327 342 343 
3 343 342 348 
3 343 348 349 
3 349 348 321 
3 349 321 322 
3 317 318 342 
3 342 318 347 
3 342 347 348 
3 348 347 319 
3 348 319 351 
3 351 319 320 
3 351 320 321 
3 318 319 347 
3 349 322 350 
3 350 322 323 
3 350 323 324 
3 325 346 324 
3 324 346 345 
3 324 345 350 
3 350 345 344 
3 350 344 349 
3 349 344 343 
3 327 328 337 
3 337 328 336 
3 337 336 341 
3 341 336 340 
3 328 329 336 
3 336 329 335 
3 336 335 340 
3 340 335 339 
3 327 343 328 
3 328 343 344 
3 328 344 329 
3 329 344 345 
3 329 345 330 
3 330 345 346 
3 330 346 331 
3 331 346 325 
3 331 325 332 
3 329 330 335 
3 335 330 334 
3 335 334 339 
3 339 334 338 
3 330 331 334 
3 351 321 348 
3 188 320 189 
3 189 320 319 
3 189 319 190 
3 190 319 318 
3 190 318 191 
3 191 318 317 
3 191 317 192 
3 192 317 316 
3 192 316 193 
3 193 316 315 
3 193 315 176 
3 176 315 314 
3 320 270 321 
3 321 270 269 
3 321 269 322 
3 322 269 268 
3 322 268 323 
3 323 268 267 
3 323 267 324 
3 324 267 266 
3 324 266 325 
3 325 266 265 
3 325 265 308 
3 308 265 264 
3 232 314 233 
3 233 314 313 
3 233 313 234 
3 234 313 312 
3 234 312 235 
3 235 312 311 
3 235 311 236 
3 236 311 310 
3 236 310 237 
3 237 310 309 
3 237 309 220 
3 220 309 308 
3 144 226 145 
3 145 226 225 
3 145 225 146 
3 146 225 224 
3 146 224 147 
3 147 224 223 
3 147 223 148 
3 148 223 222 
3 148 222 149 
3 149 222 221 
3 149 221 132 
3 132 221 220 
3 56 182 57 
3 57 182 181 
3 57 181 58 
3 58 181 180 
3 58 180 59 
3 59 180 179 
3 59 179 60 
3 60 179 178 
3 60 178 61 
3 61 178 177 
3 61 177 44 
3 44 177 176 
3 100 12 101 
3 101 12 11 
3 101 11 102 
3 102 11 10 
3 102 10 103 
3 103 10 9 
3 103 9 104 
3 104 9 8 
3 104 8 105 
3 105 8 7 
3 105 7 88 
3 88 7 6 
3 0 50 144 
3 144 50 226 
3 188 94 320 
3 320 94 270 
3 182 56 100 
3 100 56 12 
3 88 6 276 
3 276 6 138 
3 132 220 264 
3 264 220 308 
3 314 232 176 
3 176 232 44 
3 353 363 352 
3 352 363 364 
3 352 364 375 
3 375 364 365 
3 375 365 374 
3 374 365 366 
3 374 366 373 
3 373 366 367 
3 373 367 372 
3 372 367 368 
3 372 368 371 
3 371 368 369 
3 371 369 370 
3 363 353 362 
3 362 353 354 
3 362 354 361 
3 361 354 355 
3 361 355 360 
3 360 355 356 
3 360 356 359 
3 359 356 357 
3 359 357 358 
3 375 399 352 
3 352 399 376 
3 352 376 377 
3 399 375 398 
3 398 375 374 
3 398 374 397 
3 397 374 373 
3 397 373 396 
3 396 373 372 
3 396 372 395 
3 395 372 371 
3 395 371 394 
3 394 371 370 
3 394 370 393 
3 393 370 369 
3 393 369 392 
3 392 369 368 
3 392 368 391 
3 391 368 367 
3 391 367 390 
3 390 367 366 
3 390 366 389 
3 389 366 365 
3 389 365 388 
3 388 365 364 
3 388 364 363 
3 388 363 387 
3 387 363 362 
3 387 362 386 
3 386 362 361 
3 386 361 385 
3 385 361 360 
3 385 360 384 
3 384 360 359 
3 384 359 383 
3 383 359 358 
3 383 358 382 
3 382 358 357 
3 382 357 381 
3 381 357 356 
3 381 356 380 
3 380 356 355 
3 380 355 379 
3 379 355 354 
3 379 354 378 
3 378 354 353 
3 378 353 377 
3 377 353 352 
3 399 389 376 
3 376 389 388 
3 376 388 377 
3 377 388 387 
3 377 387 378 
3 378 387 386 
3 378 386 379 
3 379 386 385 
3 379 385 380 
3 380 385 384 
3 380 384 381 
3 381 384 383 
3 381 383 382 
3 389 399 390 
3 390 399 398 
3 390 398 391 
3 391 398 397 
3 391 397 392 
3 392 397 396 
3 392 396 393 
3 393 396 395 
3 393 395 394 
3 401 411 400 
3 400 411 412 
3 400 412 423 
3 423 412 413 
3 423 413 422 
3 422 413 414 
3 422 414 421 
3 421 414 415 
3 421 415 420 
3 420 415 416 
3 420 416 419 
3 419 416 417 
3 419 417 418 
3 411 401 410 
3 410 401 402 
3 410 402 409 
3 409 402 403 
3 409 403 408 
3 408 403 404 
3 408 404 407 
3 407 404 405 
3 407 405 406 
3 423 447 400 
3 400 447 424 
3 400 424 425 
3 447 423 446 
3 446 423 422 
3 446 422 445 
3 445 422 421 
3 445 421 444 
3 444 421 420 
3 444 420 443 
3 443 420 419 
3 443 419 442 
3 442 419 418 
3 442 418 441 
3 441 418 417 
3 441 417 440 
3 440 417 416 
3 440 416 439 
3 439 416 415 
3 439 415 438 
3 438 415 414 
3 438 414 437 
3 437 414 413 
3 437 413 436 
3 436 413 412 
3 436 412 411 
3 436 411 435 
3 435 411 410 
3 435 410 434 
3 434 410 409 
3 434 409 433 
3 433 409 408 
3 433 408 432 
3 432 408 407 
3 432 407 431 
3 431 407 406 
3 431 406 430 
3 430 406 405 
3 430 405 429 
3 429 405 404 
3 429 404 428 
3 428 404 403 
3 428 403 427 
3 427 403 402 
3 427 402 426 
3 426 402 401 
3 426 401 425 
3 425 401 400 
3 447 437 424 
3 424 437 436 
3 424 436 425 
3 425 436 435 
3 425 435 426 
3 426 435 434 
3 426 434 427 
3 427 434 433 
3 427 433 428 
3 428 433 432 
3 428 432 429 
3 429 432 431 
3 429 431 430 
3 437 447 438 
3 438 447 446 
3 438 446 439 
3 439 446 445 
3 439 445 440 
3 440 445 444 
3 440 444 441 
3 441 444 443 
3 441 443 442 
3 449 459 448 
3 448 459 460 
3 448 460 471 
3 471 460 461 
3 471 461 470 
3 470 461 462 
3 470 462 469 
3 469 462 463 
3 469 463 468 
3 468 463 464 
3 468 464 467 
3 467 464 465 
3 467 465 466 
3 459 449 458 
3 458 449 450 
3 458 450 457 
3 457 450 451 
3 457 451 456 
3 456 451 452 
3 456 452 455 
3 455 452 453 
3 455 453 454 
3 471 495 448 
3 448 495 472 
3 448 472 473 
3 495 471 494 
3 494 471 470 
3 494 470 493 
3 493 470 469 
3 493 469 492 
3 492 469 468 
3 492 468 491 
3 491 468 467 
3 491 467 490 
3 490 467 466 
3 490 466 489 
3 489 466 465 
3 489 465 488 
3 488 465 464 
3 488 464 487 
3 487 464 463 
3 487 463 486 
3 486 463 462 
3 486 462 485 
3 485 462 461 
3 485 461 484 
3 484 461 460 
3 484 460 459 
3 484 459 483 
3 483 459 458 
3 483 458 482 
3 482 458 457 
3 482 457 481 
3 481 457 456 
3 481 456 480 
3 480 456 455 
3 480 455 479 
3 479 455 454 
3 479 454 478 
3 478 454 453 
3 478 453 477 
3 477 453 452 
3 477 452 476 
3 476 452 451 
3 476 451 475 
3 475 451 450 
3 475 450 474 
3 474 450 449 
3 474 449 473 
3 473 449 448 
3 495 485 472 
3 472 485 484 
3 472 484 473 
3 473 484 483 
3 473 483 474 
3 474 483 482 
3 474 482 475 
3 475 482 481 
3 475 481 476 
3 476 481 480 
3 476 480 477 
3 477 480 479 
3 477 479 478 
3 485 495 486 
3 486 495 494 
3 486 494 487 
3 487 494 493 
3 487 493 488 
3 488 493 492 
3 488 492 489 
3 489 492 491 
3 489 491 490 
3 497 507 496 
3 496 507 508 
3 496 508 519 
3 519 508 509 
3 519 509 518 
3 518 509 510 
3 518 510 517 
3 517 510 511 
3 517 511 516 
3 516 511 512 
3 516 512 515 
3 515 512 513 
3 515 513 514 
3 507 497 506 
3 506 497 498 
3 506 498 505 
3 505 498 499 
3 505 499 504 
3 504 499 500 
3 504 500 503 
3 503 500 501 
3 503 501 502 
3 519 543 496 
3 496 543 520 
3 496 520 521 
3 543 519 542 
3 542 519 518 
3 542 518 541 
3 541 518 517 
3 541 517 540 
3 540 517 516 
3 540 516 539 
3 539 516 515 
3 539 515 538 
3 538 515 514 
3 538 514 537 
3 537 514 513 
3 537 513 536 
3 536 513 512 
3 536 512 535 
3 535 512 511 
3 535 511 534 
3 534 511 510 
3 534 510 533 
3 533 510 509 
3 533 509 532 
3 532 509 508 
3 532 508 507 
3 532 507 531 
3 531 507 506 
3 531 506 530 
3 530 506 505 
3 530 505 529 
3 529 505 504 
3 529 504 528 
3 528 504 503 
3 528 503 527 
3 527 503 502 
3 527 502 526 
3 526 502 501 
3 526 501 525 
3 525 501 500 
3 525 500 524 
3 524 500 499 
3 524 499 523 
3 523 499 498 
3 523 498 522 
3 522 498 497 
3 522 497 521 
3 521 497 496 
3 543 533 520 
3 520 533 532 
3 520 532 521 
3 521 532 531 
3 521 531 522 
3 522 531 530 
3 522 530 523 
3 523 530 529 
3 523 529 524 
3 524 529 528 
3 524 528 525 
3 525 528 527 
3 525 527 526 
3 533 543 534 
3 534 543 542 
3 534 542 535 
3 535 542 541 
3 535 541 536 
3 536 541 540 
3 536 540 537 
3 537 540 539 
3 537 539 538 
